<svg viewBox="-127 -120 7051 2228" width="100%" height="100%" xmlns="http://www.w3.org/2000/svg" xmlns:xlink="http://www.w3.org/1999/xlink" xml:space="preserve" overflow="hidden"><defs><linearGradient x1="12" y1="1208" x2="1207" y2="1208" gradientUnits="userSpaceOnUse" spreadMethod="reflect" id="fill0"><stop offset="0" stop-color="#A14B95"/><stop offset="0.008" stop-color="#A14B95"/><stop offset="0.08" stop-color="#9F55A5"/><stop offset="0.49" stop-color="#6560AC"/><stop offset="0.98933" stop-color="#023554"/><stop offset="1" stop-color="#023554"/></linearGradient></defs><g transform="translate(227 -262)"><rect x="12" y="610" width="1195" height="1196" fill="url(#fill0)"/><path d="M311 1208C311 1042.87 444.643 909 609.5 909 774.357 909 908 1042.87 908 1208 908 1373.13 774.357 1507 609.5 1507 444.643 1507 311 1373.13 311 1208Z" fill="#FFFFFF" fill-rule="evenodd"/><text fill="#9976DB" font-family="Merriweather 24pt Medium 24pt,Merriweather 24pt Medium 24pt_MSFontService,sans-serif" font-weight="500" font-size="917" transform="matrix(1 0 0 1 1288.21 1398)">B</text><text fill="#9976DB" font-family="Merriweather 24pt Medium 24pt,Merriweather 24pt Medium 24pt_MSFontService,sans-serif" font-weight="500" font-size="917" transform="matrix(1 0 0 1 1902.37 1701)">P</text><text fill="#033655" font-family="Merriweather 24pt Medium 24pt,Merriweather 24pt Medium 24pt_MSFontService,sans-serif" font-weight="500" font-size="917" transform="matrix(1 0 0 1 2489.61 1701)">len</text><text fill="#033655" font-family="Merriweather 24pt Medium 24pt,Merriweather 24pt Medium 24pt_MSFontService,sans-serif" font-weight="500" font-size="917" transform="matrix(1 0 0 1 3854.3 1701)">•</text><text fill="#A14C95" font-family="Merriweather 24pt Medium 24pt,Merriweather 24pt Medium 24pt_MSFontService,sans-serif" font-weight="500" font-size="917" transform="matrix(1 0 0 1 4245.6 1701)">HU</text><text fill="#A14C95" font-family="Merriweather 24pt Medium 24pt,Merriweather 24pt Medium 24pt_MSFontService,sans-serif" font-weight="500" font-size="917" transform="matrix(1 0 0 1 5657.84 1701)">B</text></g></svg>